<svg width="343" height="150" viewBox="0 0 343 150" fill="none" xmlns="http://www.w3.org/2000/svg">
<path d="M127.67 13.7265C202.753 -8.89796 217.102 0.333507 229.438 20.1875C246.386 47.4659 285.989 35.4042 304.993 61.3882C327.176 91.7175 342 149.5 342 149.5L0.202224 149.5C0.202224 149.5 -4.41954 62.37 30.5271 26.1436C54.3935 1.40328 94.2471 23.7975 127.67 13.7265Z" fill="#DADADA" fill-opacity="0.15"/>
<path d="M342.5 149.5C342.5 149.5 327.676 91.7175 305.493 61.3882C286.489 35.4042 246.886 47.4659 229.938 20.1875C217.602 0.333506 203.253 -8.89796 128.17 13.7265C94.7471 23.7975 54.8935 1.40328 31.0271 26.1436C-3.91954 62.37 0.702224 149.5 0.702224 149.5" stroke="url(#paint0_linear_450_902)"/>
<defs>
<linearGradient id="paint0_linear_450_902" x1="0.992801" y1="0.499756" x2="32.9099" y2="154.659" gradientUnits="userSpaceOnUse">
<stop stop-color="#DADADA" stop-opacity="0.15"/>
<stop offset="1" stop-color="#FFC2E9"/>
</linearGradient>
</defs>
</svg>
