<svg width="479" height="368" viewBox="0 0 479 368" fill="none" xmlns="http://www.w3.org/2000/svg">
<path d="M178.939 177.464C283.879 145.881 303.936 158.768 321.177 186.484C344.865 224.564 400.216 207.726 426.777 243.999C457.781 286.338 478.5 367 478.5 367L0.78264 367C0.78264 367 -5.67702 245.369 43.1666 194.798C76.5237 160.261 132.226 191.523 178.939 177.464Z" fill="#DADADA" fill-opacity="0.15"/>
<path d="M478.5 367.084C478.5 367.084 457.781 286.422 426.777 244.083C400.216 207.81 344.865 224.648 321.177 186.568C303.936 158.852 283.879 145.966 178.939 177.549C132.226 191.608 76.5237 160.346 43.1666 194.883C-5.67702 245.454 0.78264 367.084 0.78264 367.084" stroke="url(#paint0_linear_444_878)"/>
<path d="M354.5 0.5C364.429 0.5 372.5 8.77008 372.5 19C372.5 24.1311 370.469 30.1581 367.171 34.8994C363.866 39.651 359.373 43 354.5 43C352.052 43 349.229 42.1578 346.353 40.7012C343.482 39.2473 340.589 37.1964 338.008 34.8174C335.426 32.4379 333.167 29.741 331.557 27.002C329.944 24.2582 329 21.5035 329 19C329 14.0081 332.769 9.38901 337.943 5.98242C343.101 2.5869 349.507 0.5 354.5 0.5Z" fill="#DADADA" fill-opacity="0.15" stroke="url(#paint1_linear_444_878)"/>
<path d="M394 35.5C400.433 35.5 409.568 39.7886 417.119 46.667C424.66 53.5361 430.5 62.8789 430.5 72.8652C430.5 82.8542 425.891 88.9807 419.666 92.6367C413.407 96.3123 405.49 97.4999 398.928 97.5C392.365 97.5 386.016 96.3113 381.314 92.6719C376.638 89.052 373.5 82.9345 373.5 72.8652C373.5 62.7401 375.437 53.3587 378.988 46.5283C382.54 39.696 387.652 35.5 394 35.5Z" fill="#DADADA" fill-opacity="0.15" stroke="url(#paint2_linear_444_878)"/>
<path d="M425.659 111.118C427.963 110.879 429.961 110.981 431.596 111.532C433.215 112.077 434.495 113.068 435.38 114.652C436.273 116.25 436.782 118.487 436.782 121.545C436.782 127.663 434.743 135.196 431.297 143.078C427.854 150.952 423.025 159.138 417.482 166.552C411.938 173.968 405.692 180.596 399.424 185.366C393.145 190.144 386.902 193.012 381.353 193.012C358.829 193.012 340.5 173.124 340.5 148.5C340.5 142.345 341.646 137.645 343.685 134.047C345.72 130.456 348.666 127.928 352.33 126.15C359.695 122.576 369.918 122.045 381.353 122.045C387.141 122.045 393.552 120.472 399.874 118.527C406.24 116.569 412.447 114.26 418.017 112.705C420.786 111.931 423.359 111.356 425.659 111.118Z" fill="#DADADA" fill-opacity="0.15" stroke="url(#paint3_linear_444_878)"/>
<defs>
<linearGradient id="paint0_linear_444_878" x1="1.18877" y1="159.084" x2="45.6948" y2="374.308" gradientUnits="userSpaceOnUse">
<stop stop-color="#DADADA" stop-opacity="0.15"/>
<stop offset="1" stop-color="#FFC2E9"/>
</linearGradient>
<linearGradient id="paint1_linear_444_878" x1="328.564" y1="4.40091e-08" x2="346.498" y2="38.6047" gradientUnits="userSpaceOnUse">
<stop stop-color="#DADADA" stop-opacity="0.15"/>
<stop offset="1" stop-color="#FFC2E9"/>
</linearGradient>
<linearGradient id="paint2_linear_444_878" x1="373.084" y1="35" x2="400.789" y2="88.6741" gradientUnits="userSpaceOnUse">
<stop stop-color="#DADADA" stop-opacity="0.15"/>
<stop offset="1" stop-color="#FFC2E9"/>
</linearGradient>
<linearGradient id="paint3_linear_444_878" x1="340.14" y1="110.497" x2="371.334" y2="187.419" gradientUnits="userSpaceOnUse">
<stop stop-color="#DADADA" stop-opacity="0.15"/>
<stop offset="1" stop-color="#FFC2E9"/>
</linearGradient>
</defs>
</svg>
