<svg width="131" height="231" viewBox="0 0 131 231" fill="none" xmlns="http://www.w3.org/2000/svg">
<path d="M130.007 230.416C130.007 230.416 117.677 203.949 105.533 194.402C81.1974 175.272 44.0914 249.474 36.6023 209.55C29.526 171.826 86.7406 169.135 105.533 110.281C110.993 93.1801 90.1964 50.8579 93.287 30.997C98.9297 -5.26334 130.007 0.896072 130.007 0.896072V230.416Z" fill="#DADADA" fill-opacity="0.15"/>
<path d="M130.007 230.416C130.007 230.416 117.677 203.949 105.533 194.402C81.1974 175.272 44.0914 249.474 36.6023 209.55C29.526 171.826 86.7406 169.135 105.533 110.281C110.993 93.18 90.1964 50.8579 93.287 30.997C98.9297 -5.26333 130.007 0.89608 130.007 0.89608" stroke="url(#paint0_linear_265_1541)"/>
<path d="M96.1643 206.205C92.8385 206.205 90.218 208.667 90.218 211.614C90.2181 214.561 92.8385 217.023 96.1643 217.023C99.4901 217.023 102.111 214.561 102.111 211.614C102.111 208.667 99.4902 206.205 96.1643 206.205Z" fill="#DADADA" fill-opacity="0.15" stroke="url(#paint1_linear_265_1541)"/>
<path d="M16.9697 3.99951C23.3496 3.99957 28.5439 9.31558 28.5439 15.9009C28.5438 19.2096 27.2316 23.1088 25.0967 26.1782C22.9546 29.258 20.0682 31.3911 16.9697 31.3911C15.4087 31.3911 13.5936 30.8533 11.7305 29.9097C9.87283 28.9688 7.99784 27.6395 6.32324 26.0962C4.64827 24.5525 3.18525 22.8051 2.14453 21.0347C1.10129 19.2598 0.500122 17.493 0.5 15.9009C0.5 12.7313 2.89826 9.76168 6.25879 7.54932C9.60262 5.34799 13.7513 3.99951 16.9697 3.99951Z" fill="#DADADA" fill-opacity="0.15" stroke="url(#paint2_linear_265_1541)"/>
<path d="M42.7502 26.8433C46.8883 26.8433 52.8108 29.612 57.7229 34.0864C62.6248 38.5517 66.3997 44.6065 66.3997 51.0571C66.3996 57.5102 63.4284 61.4536 59.4143 63.811C55.3665 66.1882 50.2333 66.9624 45.9661 66.9624C41.6988 66.9624 37.6014 66.1878 34.5774 63.8472C31.5785 61.5258 29.5443 57.5908 29.5442 51.0571C29.5442 44.4677 30.8055 38.3742 33.1067 33.9478C35.4089 29.5194 38.6973 26.8433 42.7502 26.8433Z" fill="#DADADA" fill-opacity="0.15" stroke="url(#paint3_linear_265_1541)"/>
<path d="M63.4316 76.1968C64.9222 76.0422 66.1981 76.1102 67.2324 76.4585C68.2514 76.8018 69.0512 77.4216 69.6064 78.4155C70.1697 79.4238 70.5 80.8508 70.5 82.8296C70.5 86.7884 69.179 91.6803 66.9346 96.814C64.6936 101.94 61.5481 107.272 57.9375 112.101C54.326 116.932 50.2601 121.245 46.1855 124.345C42.0996 127.454 38.062 129.301 34.4961 129.301C19.9052 129.301 8.00586 116.412 8.00586 100.422C8.00589 96.4265 8.74963 93.3895 10.0615 91.0747C11.3702 88.7656 13.2645 87.139 15.6289 85.9917C20.3943 83.6794 27.0274 83.3296 34.4961 83.3296C38.3014 83.3295 42.5058 82.2959 46.6348 81.0259C50.8083 79.7421 54.8357 78.2427 58.4727 77.2271C60.2759 76.7235 61.9443 76.3511 63.4316 76.1968Z" fill="#DADADA" fill-opacity="0.15" stroke="url(#paint4_linear_265_1541)"/>
<defs>
<linearGradient id="paint0_linear_265_1541" x1="129.872" y1="230.416" x2="35.2549" y2="229.912" gradientUnits="userSpaceOnUse">
<stop stop-color="#FFC2E9"/>
<stop offset="1" stop-color="#DADADA" stop-opacity="0.15"/>
</linearGradient>
<linearGradient id="paint1_linear_265_1541" x1="102.592" y1="205.705" x2="89.6182" y2="205.889" gradientUnits="userSpaceOnUse">
<stop stop-color="#FFC2E9"/>
<stop offset="1" stop-color="#DADADA" stop-opacity="0.15"/>
</linearGradient>
<linearGradient id="paint2_linear_265_1541" x1="0.0418504" y1="3.49951" x2="29.2699" y2="3.88888" gradientUnits="userSpaceOnUse">
<stop stop-color="#DADADA" stop-opacity="0.15"/>
<stop offset="1" stop-color="#FFC2E9"/>
</linearGradient>
<linearGradient id="paint3_linear_265_1541" x1="29.0987" y1="26.3433" x2="67.1951" y2="26.8" gradientUnits="userSpaceOnUse">
<stop stop-color="#DADADA" stop-opacity="0.15"/>
<stop offset="1" stop-color="#FFC2E9"/>
</linearGradient>
<linearGradient id="paint4_linear_265_1541" x1="7.59735" y1="75.6187" x2="71.4901" y2="76.5937" gradientUnits="userSpaceOnUse">
<stop stop-color="#DADADA" stop-opacity="0.15"/>
<stop offset="1" stop-color="#FFC2E9"/>
</linearGradient>
</defs>
</svg>
