<svg width="195" height="368" viewBox="0 0 195 368" fill="none" xmlns="http://www.w3.org/2000/svg">
<path d="M0.458139 0.199219C0.458139 0.199219 19.2917 43.4077 28.0602 62.4758C59.1304 130.042 1.59684 235.226 35.5602 300.127C51.2707 330.149 64.5654 331.383 90.9581 323.802C106.422 319.361 120.268 293.251 128.958 275.176C143.3 245.347 110.024 194.538 134.958 184.088C147.083 179.006 156.942 180.97 166.958 191.621C183.77 209.5 182.458 237.936 166.958 266.273C146.449 303.768 193.958 366.949 193.958 366.949H0.458139V0.199219Z" fill="#DADADA" fill-opacity="0.15"/>
<path d="M0.458139 0.199219C0.458139 0.199219 19.2917 43.4078 28.0602 62.4758C59.1304 130.042 1.59684 235.226 35.5602 300.127C51.2707 330.149 64.5654 331.383 90.9581 323.802C106.422 319.361 120.268 293.251 128.958 275.176C143.3 245.347 110.024 194.538 134.958 184.088C147.083 179.006 156.942 180.97 166.958 191.621C183.77 209.5 182.458 237.936 166.958 266.273C146.449 303.768 193.958 366.949 193.958 366.949" stroke="url(#paint0_linear_419_127)"/>
<path d="M147.864 121.965C155.037 115.913 166.975 118.017 174.519 126.957C178.185 131.302 177.928 136.123 175.799 140.702C173.66 145.303 169.65 149.595 165.95 152.717C158.777 158.769 146.839 156.665 139.296 147.725C135.629 143.38 135.887 138.558 138.015 133.98C140.155 129.378 144.164 125.087 147.864 121.965Z" fill="#DADADA" fill-opacity="0.15" stroke="url(#paint1_linear_419_127)"/>
<defs>
<linearGradient id="paint0_linear_419_127" x1="0.736958" y1="0.199222" x2="195.488" y2="1.53729" gradientUnits="userSpaceOnUse">
<stop stop-color="#FFC2E9"/>
<stop offset="0.5" stop-color="#DADADA" stop-opacity="0.15"/>
<stop offset="1" stop-color="#FFC2E9"/>
</linearGradient>
<linearGradient id="paint1_linear_419_127" x1="129.504" y1="136.803" x2="161.676" y2="110.466" gradientUnits="userSpaceOnUse">
<stop stop-color="#DADADA" stop-opacity="0.15"/>
<stop offset="1" stop-color="#FFC2E9"/>
</linearGradient>
</defs>
</svg>
