<svg width="375" height="111" viewBox="0 0 375 111" fill="none" xmlns="http://www.w3.org/2000/svg">
<path d="M375 0C375 0 310.071 21.1105 294.5 41.903C263.299 83.5667 351.118 95.678 286 108.5C224.471 120.615 292.993 64.1733 197 32C169.108 22.6518 82.1354 68.1598 49.7416 62.8683C-9.40021 53.2076 0.645996 0 0.645996 0H375Z" fill="#DADADA" fill-opacity="0.15"/>
<path d="M375 0C375 0 309.571 21.2075 294 42C262.799 83.6637 352.118 95.178 287 108C225.471 120.115 292.993 64.1733 197 32C169.108 22.6518 82.1354 68.1598 49.7416 62.8683C-9.40017 53.2076 0.646027 0 0.646027 0" stroke="url(#paint0_linear_250_1518)"/>
<path d="M344.334 67.0795C350.219 67.0795 354.871 62.9269 354.871 57.9418C354.871 52.9566 350.219 48.8041 344.334 48.8041C338.449 48.8042 333.798 52.9567 333.798 57.9418C333.798 62.9268 338.449 67.0793 344.334 67.0795Z" fill="#DADADA" fill-opacity="0.15" stroke="url(#paint1_linear_250_1518)"/>
<defs>
<linearGradient id="paint0_linear_250_1518" x1="375" y1="0.158055" x2="263.827" y2="180.776" gradientUnits="userSpaceOnUse">
<stop stop-color="#FFC2E9"/>
<stop offset="1" stop-color="#DADADA" stop-opacity="0.15"/>
</linearGradient>
<linearGradient id="paint1_linear_250_1518" x1="333.329" y1="67.5795" x2="355.541" y2="67.2482" gradientUnits="userSpaceOnUse">
<stop stop-color="#DADADA" stop-opacity="0.15"/>
<stop offset="1" stop-color="#FFC2E9"/>
</linearGradient>
</defs>
</svg>
