<svg width="178" height="316" viewBox="0 0 178 316" fill="none" xmlns="http://www.w3.org/2000/svg">
<path d="M177.056 315.131V0.131104C177.056 0.131104 157.89 70.3244 129.181 88.0456C101.492 105.138 85.4846 89.4636 70.5106 74.8017C54.3754 59.0026 39.4404 44.3788 12.3834 73.1929C-18.5685 106.155 17.1842 109.419 48.4897 115.386C83.2053 122.002 105.823 126.685 129.181 184.131C166.681 293.131 115.556 315.131 115.556 315.131H177.056Z" fill="#DADADA" fill-opacity="0.15"/>
<path d="M177.056 0.131104C177.056 0.131104 157.89 70.3244 129.181 88.0456C101.492 105.138 85.4846 89.4636 70.5106 74.8017C54.3754 59.0026 39.4404 44.3788 12.3834 73.1929C-18.5685 106.155 17.1842 109.419 48.4897 115.386C83.2053 122.002 105.823 126.685 129.181 184.131C166.681 293.131 115.556 315.131 115.556 315.131" stroke="url(#paint0_linear_419_123)"/>
<path d="M98.6171 41.6311C93.6549 41.6313 89.5558 46.0562 89.5556 51.6135C89.5556 54.4006 90.5917 57.6868 92.2753 60.2708C93.9695 62.8708 96.228 64.631 98.6171 64.6311C99.8239 64.6311 101.24 64.1866 102.707 63.3938C104.168 62.6041 105.645 61.4862 106.966 60.1868C109.631 57.5644 111.556 54.3071 111.556 51.6135C111.555 48.9584 109.674 46.469 107.029 44.6106C104.395 42.7592 101.133 41.6311 98.6171 41.6311Z" fill="#DADADA" fill-opacity="0.15" stroke="url(#paint1_linear_419_123)"/>
<defs>
<linearGradient id="paint0_linear_419_123" x1="176.801" y1="0.131106" x2="-0.894559" y2="1.42809" gradientUnits="userSpaceOnUse">
<stop stop-color="#FFC2E9"/>
<stop offset="1" stop-color="#DADADA" stop-opacity="0.15"/>
</linearGradient>
<linearGradient id="paint1_linear_419_123" x1="112.022" y1="41.1311" x2="88.8763" y2="41.42" gradientUnits="userSpaceOnUse">
<stop stop-color="#FFC2E9"/>
<stop offset="1" stop-color="#DADADA" stop-opacity="0.15"/>
</linearGradient>
</defs>
</svg>
