<svg width="135" height="244" viewBox="0 0 135 244" fill="none" xmlns="http://www.w3.org/2000/svg">
<path d="M53.3257 6.46729C56.8614 6.46752 59.6519 9.08537 59.6519 12.2251C59.6518 15.3648 56.8614 17.9827 53.3257 17.9829C49.7897 17.9829 46.9986 15.365 46.9985 12.2251C46.9985 9.08523 49.7897 6.46729 53.3257 6.46729Z" fill="#DADADA" fill-opacity="0.15" stroke="url(#paint0_linear_265_1535)"/>
<path d="M52.1295 83.0759C60.4204 76.0802 73.0652 77.3789 80.3685 86.034C83.9112 90.2327 83.2678 95.2793 80.581 100.284C77.8931 105.291 73.2186 110.123 68.9815 113.698C60.6905 120.694 48.0451 119.394 40.7419 110.739C37.1993 106.541 37.8426 101.494 40.5293 96.4889C43.2172 91.4819 47.8924 86.651 52.1295 83.0759Z" fill="#DADADA" fill-opacity="0.15" stroke="url(#paint1_linear_265_1535)"/>
<path d="M0.418701 0.278809C0.418701 0.278809 21.6382 31.8319 37.9999 41.9358C70.7855 62.1821 96.5277 -9.31291 126.259 22.362C163.461 61.9966 46.8044 26.3223 21.487 88.6118C14.1308 106.71 31.8675 153.623 27.7036 174.643C20.1015 213.02 0.418701 243.194 0.418701 243.194V0.278809Z" fill="#DADADA" fill-opacity="0.15"/>
<path d="M0.418701 0.278809C0.418701 0.278809 21.6382 31.8319 37.9999 41.9358C70.7855 62.1821 96.5277 -9.31291 126.259 22.362C163.461 61.9966 46.8044 26.3223 21.487 88.6118C14.1308 106.71 31.8675 153.623 27.7036 174.643C20.1015 213.02 0.418701 243.194 0.418701 243.194" stroke="url(#paint2_linear_265_1535)"/>
<defs>
<linearGradient id="paint0_linear_265_1535" x1="46.5182" y1="5.96729" x2="60.2577" y2="6.16247" gradientUnits="userSpaceOnUse">
<stop stop-color="#FFC2E9"/>
<stop offset="1" stop-color="#DADADA" stop-opacity="0.15"/>
</linearGradient>
<linearGradient id="paint1_linear_265_1535" x1="31.1907" y1="100.089" x2="68.0364" y2="70.0835" gradientUnits="userSpaceOnUse">
<stop stop-color="#FFC2E9"/>
<stop offset="1" stop-color="#DADADA" stop-opacity="0.15"/>
</linearGradient>
<linearGradient id="paint2_linear_265_1535" x1="0.610485" y1="0.278811" x2="134.569" y2="1.23462" gradientUnits="userSpaceOnUse">
<stop stop-color="#FFC2E9"/>
<stop offset="1" stop-color="#DADADA" stop-opacity="0.15"/>
</linearGradient>
</defs>
</svg>
