<svg width="235" height="437" viewBox="0 0 235 437" fill="none" xmlns="http://www.w3.org/2000/svg">
<path d="M93.4211 10.9871C99.804 10.9871 104.921 15.8238 104.921 21.7214C104.921 27.619 99.8039 32.4548 93.4211 32.4548C87.0384 32.4548 81.9213 27.619 81.9211 21.7214C81.9211 15.8238 87.0383 10.9871 93.4211 10.9871Z" fill="#DADADA" fill-opacity="0.15" stroke="url(#paint0_linear_39_159)"/>
<path d="M91.071 148.611C105.816 135.905 128.285 138.276 141.252 153.971C147.627 161.688 146.427 170.944 141.67 179.993C136.913 189.044 128.653 197.753 121.189 204.185C106.444 216.891 83.9761 214.521 71.0094 198.827C64.6335 191.11 65.8337 181.854 70.5899 172.806C75.3476 163.754 83.6071 155.043 91.071 148.611Z" fill="#DADADA" fill-opacity="0.15" stroke="url(#paint1_linear_39_159)"/>
<path d="M0.421143 0.274414C0.421143 0.274414 37.721 56.9187 66.4819 75.0575C124.113 111.404 169.363 -16.9447 221.625 39.9184C287.019 111.071 81.9585 47.0279 37.4552 158.851C24.5244 191.341 55.7022 275.56 48.3828 313.295C35.0198 382.189 0.421143 436.359 0.421143 436.359V0.274414Z" fill="#DADADA" fill-opacity="0.15"/>
<path d="M0.421143 0.274414C0.421143 0.274414 37.721 56.9187 66.4819 75.0575C124.113 111.404 169.363 -16.9447 221.625 39.9184C287.019 111.071 81.9585 47.0279 37.4552 158.851C24.5244 191.341 55.7022 275.56 48.3828 313.295C35.0198 382.189 0.421143 436.359 0.421143 436.359" stroke="url(#paint2_linear_39_159)"/>
<defs>
<linearGradient id="paint0_linear_39_159" x1="81.4557" y1="10.4871" x2="105.607" y2="10.823" gradientUnits="userSpaceOnUse">
<stop stop-color="#FFC2E9"/>
<stop offset="1" stop-color="#DADADA" stop-opacity="0.15"/>
</linearGradient>
<linearGradient id="paint1_linear_39_159" x1="54.5125" y1="179.455" x2="120.363" y2="126.946" gradientUnits="userSpaceOnUse">
<stop stop-color="#FFC2E9"/>
<stop offset="1" stop-color="#DADADA" stop-opacity="0.15"/>
</linearGradient>
<linearGradient id="paint2_linear_39_159" x1="0.758263" y1="0.274418" x2="236.232" y2="1.91956" gradientUnits="userSpaceOnUse">
<stop stop-color="#FFC2E9"/>
<stop offset="1" stop-color="#DADADA" stop-opacity="0.15"/>
</linearGradient>
</defs>
</svg>
