<svg width="57" height="90" viewBox="0 0 57 90" fill="none" xmlns="http://www.w3.org/2000/svg">
<path d="M39.46 0.5C34.6246 0.500114 30.8545 3.79556 30.8545 7.69141C30.8545 11.5873 34.6246 14.8827 39.46 14.8828C44.2955 14.8828 48.0664 11.5874 48.0664 7.69141C48.0664 3.79549 44.2954 0.5 39.46 0.5Z" fill="#DADADA" fill-opacity="0.15" stroke="url(#paint0_linear_255_1524)"/>
<path d="M12.9692 22.8751C6.13521 22.8752 0.500488 29.1108 0.500488 36.9268C0.50061 40.6691 2.85475 43.0097 6.20264 44.4415C9.56398 45.879 13.8328 46.3477 17.3843 46.3477C24.2183 46.3477 29.8538 40.1128 29.854 32.2969C29.854 28.5544 27.4989 26.2141 24.1509 24.7823C20.7894 23.3447 16.5208 22.8751 12.9692 22.8751Z" fill="#DADADA" fill-opacity="0.15" stroke="url(#paint1_linear_255_1524)"/>
<path d="M31.4592 52.1942C29.3435 52.1942 27.4863 53.1448 25.8713 54.7733C24.2506 56.4077 22.8928 58.7082 21.804 61.3436C19.6259 66.6153 18.5706 73.1103 18.5706 77.9384C18.5706 82.5341 21.6087 85.4137 25.9124 87.1698C30.2228 88.9286 35.6867 89.4998 40.2219 89.4999C49.0413 89.4999 56.2483 81.8361 56.2483 72.3094C56.2483 70.0033 55.2923 67.5925 53.6692 65.2518C52.0483 62.9144 49.7836 60.679 47.2239 58.7362C42.0854 54.8363 35.8688 52.1943 31.4592 52.1942Z" fill="#DADADA" fill-opacity="0.15" stroke="url(#paint2_linear_255_1524)"/>
<defs>
<linearGradient id="paint0_linear_255_1524" x1="48.5402" y1="1.5563e-08" x2="42.8024" y2="14.2948" gradientUnits="userSpaceOnUse">
<stop stop-color="#DADADA" stop-opacity="0.15"/>
<stop offset="1" stop-color="#FFC2E9"/>
</linearGradient>
<linearGradient id="paint1_linear_255_1524" x1="30.3103" y1="22.3751" x2="21.4881" y2="45.4006" gradientUnits="userSpaceOnUse">
<stop stop-color="#DADADA" stop-opacity="0.15"/>
<stop offset="1" stop-color="#FFC2E9"/>
</linearGradient>
<linearGradient id="paint2_linear_255_1524" x1="56.6926" y1="51.6942" x2="40.7677" y2="85.5302" gradientUnits="userSpaceOnUse">
<stop stop-color="#DADADA" stop-opacity="0.15"/>
<stop offset="1" stop-color="#FFC2E9"/>
</linearGradient>
</defs>
</svg>
